<?xml version="1.0" encoding="UTF-8"?>
<svg version="1.1" xmlns="http://www.w3.org/2000/svg" width="512" height="512">
<path d="M0 0 C13.46120449 -0.46992944 26.77772547 2.36551497 37.96875 10.19140625 C38.61585938 10.87203125 39.26296875 11.55265625 39.9296875 12.25390625 C42.3116601 14.51723654 44.22563556 15.21317427 47.34375 16.19140625 C56.81431318 19.46533604 63.83348429 25.18148886 68.51953125 34.1640625 C71.87584149 41.99545305 71.87584149 41.99545305 72.11987305 45.13671875 C72.38517171 47.53435893 72.76636896 49.08697389 73.96875 51.19140625 C77.69085763 53.82256544 81.81512203 55.37916742 86.03125 57.06640625 C87.31089841 57.60476418 88.58918661 58.14636478 89.86621094 58.69091797 C92.67974271 59.88717141 95.49918868 61.06787097 98.32275391 62.24023438 C103.28837673 64.31272678 108.21415222 66.47208923 113.13671875 68.64453125 C114.0035025 69.02692459 114.87028625 69.40931793 115.76333618 69.80329895 C117.52903777 70.58273949 119.29461142 71.36246994 121.06005859 72.14248657 C125.44771371 74.07981358 129.83842831 76.01013783 134.23046875 77.9375 C135.49145889 78.49095345 135.49145889 78.49095345 136.77792358 79.05558777 C141.79205363 81.25159781 146.82038949 83.4100669 151.86328125 85.5390625 C153.01022461 86.02810059 154.15716797 86.51713867 155.33886719 87.02099609 C157.37452841 87.8868838 159.41512486 88.74132145 161.46191406 89.58056641 C170.29432062 93.35743515 176.82871946 98.41454152 180.96875 107.19140625 C183.27784283 114.40143082 183.23393479 123.45689318 180.15625 130.37890625 C174.72491015 139.71163106 165.64859618 146.70036508 157.28125 153.31640625 C155.37418599 154.86267436 153.68265898 156.44292274 151.96875 158.19140625 C152.58325516 158.19505188 153.19776031 158.19869751 153.83088684 158.20245361 C160.27231608 158.24451973 166.7130487 158.31403178 173.15405273 158.39892578 C175.55241909 158.42701461 177.95087593 158.44828876 180.34936523 158.46240234 C183.81280445 158.48399935 187.27516935 158.53073676 190.73828125 158.58203125 C192.32646416 158.58387421 192.32646416 158.58387421 193.94673157 158.58575439 C204.47591589 158.78925907 214.3284419 161.64801538 221.96875 169.19140625 C229.36286866 177.92450012 232.45579009 186.38082831 232.30932617 197.75024414 C232.30976425 198.65864044 232.31020233 199.56703674 232.31065369 200.50296021 C232.30858152 203.47355453 232.28532531 206.44356808 232.26171875 209.4140625 C232.2561172 211.48627921 232.25184974 213.55849992 232.24885559 215.63072205 C232.23745088 221.06081282 232.20802156 226.4906594 232.17474365 231.9206543 C232.14394818 237.47115781 232.13033006 243.02170113 232.11523438 248.57226562 C232.08314749 259.44541925 232.03200439 270.31839237 231.96875 281.19140625 C232.65890198 281.32195908 233.34905396 281.4525119 234.06011963 281.58702087 C235.41529694 281.8493325 235.41529694 281.8493325 236.79785156 282.11694336 C237.69425354 282.28874619 238.59065552 282.46054901 239.51422119 282.63755798 C246.15475153 284.13594994 250.70984678 288.38374774 254.46875 293.87890625 C257.82213487 299.27226692 258.12608863 303.77550637 258.14575195 310.02148438 C258.15560875 311.37553627 258.15560875 311.37553627 258.16566467 312.75694275 C258.18538463 315.74551473 258.19705461 318.73403661 258.20703125 321.72265625 C258.21110678 322.74218887 258.2151823 323.7617215 258.21938133 324.81214905 C258.24023201 330.20370277 258.25454062 335.59523109 258.26391602 340.98681641 C258.2750055 346.56584505 258.30943747 352.14447759 258.34908772 357.72336578 C258.37517175 362.00580612 258.3836003 366.28815065 258.38719749 370.57066345 C258.39208122 372.62803334 258.4037456 374.68539845 258.42223549 376.74269104 C258.44646248 379.61589494 258.44569268 382.48805438 258.4387207 385.36132812 C258.45153076 386.21544785 258.46434082 387.06956757 258.47753906 387.9495697 C258.4266638 393.68128203 258.4266638 393.68128203 256.12687683 396.24328613 C253.96875 397.19140625 253.96875 397.19140625 250.96875 397.19140625 C250.96875 402.47140625 250.96875 407.75140625 250.96875 413.19140625 C252.61875 413.52140625 254.26875 413.85140625 255.96875 414.19140625 C258.55523849 418.07113898 258.27155816 421.32038485 258.27514648 425.82202148 C258.28347 426.70360931 258.29179352 427.58519714 258.30036926 428.49349976 C258.32449655 431.41237787 258.33324413 434.3310327 258.33984375 437.25 C258.34880706 439.27637297 258.35792885 441.30274525 258.36720276 443.32911682 C258.38370207 447.57855845 258.39139476 451.8279212 258.39428711 456.07739258 C258.39967595 461.52642368 258.43737284 466.97471522 258.48303127 472.42353725 C258.51274963 476.60910257 258.52000951 480.79448855 258.52101326 484.98015022 C258.52522493 486.98925227 258.53769695 488.99835439 258.55853081 491.00735283 C258.58534074 493.81592367 258.58065134 496.62276371 258.56811523 499.43139648 C258.58294952 500.26321945 258.59778381 501.09504242 258.61306763 501.95207214 C258.56677237 505.58817181 258.44828325 507.66360242 255.95790386 510.40466738 C252.11503607 512.7017058 248.8746623 512.74624818 244.52755737 512.69477081 C243.67572254 512.70058458 242.82388772 512.70639834 241.94623971 512.71238828 C239.07829562 512.72704129 236.21120025 512.71307831 233.34326172 512.69934082 C231.27185566 512.70394763 229.20045286 512.71029906 227.12905693 512.7182498 C221.42632821 512.73499634 215.72386615 512.72667251 210.02113628 512.71430492 C203.87517651 512.70527854 197.72926355 512.71921216 191.58331299 512.73022461 C180.23576863 512.74700984 168.88833336 512.74551789 157.54079169 512.73457874 C147.05841497 512.72452302 136.57606952 512.72188666 126.09368896 512.72666931 C125.3988122 512.72697485 124.70393544 512.72728039 123.98800181 512.72759519 C121.16738702 512.72884051 118.34677225 512.73011411 115.52615749 512.73143425 C89.05773955 512.74367478 62.58937596 512.73256923 36.1209664 512.71104666 C12.59689119 512.69206372 -10.92709742 512.69376221 -34.45117188 512.71289062 C-60.87066668 512.73430153 -87.29011344 512.74280674 -113.70961571 512.73044157 C-116.52514012 512.72915867 -119.34066454 512.72790731 -122.15618896 512.72666931 C-122.84946089 512.726353 -123.54273281 512.72603669 -124.25701298 512.7257108 C-134.73371273 512.72115775 -145.2103778 512.72648787 -155.68707275 512.73658752 C-167.5975987 512.74801204 -179.50802233 512.74480608 -191.41854429 512.72346455 C-197.49910764 512.71292949 -203.5794949 512.70887416 -209.66005707 512.72206116 C-215.22138051 512.73393994 -220.78236391 512.72749711 -226.3436563 512.70615095 C-228.36040272 512.7016657 -230.3771776 512.70399393 -232.39390588 512.7136541 C-235.12637013 512.7257433 -237.85765562 512.71341942 -240.59005737 512.69477081 C-241.38087448 512.70413548 -242.17169158 512.71350014 -242.98647285 512.72314858 C-246.64075997 512.67298716 -248.85805906 512.29498303 -252.01956272 510.40424681 C-255.03893516 507.08296031 -254.722424 503.71281348 -254.66235352 499.44726562 C-254.66950882 498.56553177 -254.67666412 497.68379791 -254.68403625 496.77534485 C-254.70094187 493.86142123 -254.68150995 490.94903208 -254.66015625 488.03515625 C-254.66098478 486.01021192 -254.66344354 483.98526765 -254.66746521 481.96032715 C-254.67032449 477.7166723 -254.6556091 473.47354487 -254.62817383 469.22998047 C-254.59409104 463.78884197 -254.60010814 458.34864671 -254.6188364 452.90746307 C-254.62940212 448.72613659 -254.62047243 444.54502981 -254.60545158 440.36372375 C-254.60026618 438.35745394 -254.60075591 436.35116122 -254.60699654 434.34489441 C-254.61244351 431.54127626 -254.59209039 428.73901091 -254.56469727 425.93554688 C-254.57122314 425.10529495 -254.57774902 424.27504303 -254.58447266 423.41963196 C-254.52422059 419.79532823 -254.34157103 417.61952301 -252.18540955 414.64489746 C-250.03125 413.19140625 -250.03125 413.19140625 -247.03125 413.19140625 C-247.03125 407.91140625 -247.03125 402.63140625 -247.03125 397.19140625 C-248.68125 396.86140625 -250.33125 396.53140625 -252.03125 396.19140625 C-255.06933687 393.15331938 -254.33444625 389.66267262 -254.33764648 385.5859375 C-254.34597 384.69462631 -254.35429352 383.80331512 -254.36286926 382.88499451 C-254.38705219 379.92458779 -254.39575449 376.96440143 -254.40234375 374.00390625 C-254.41130872 371.94563734 -254.42043054 369.88736911 -254.42970276 367.82910156 C-254.44622125 363.50470394 -254.4538972 359.18038396 -254.45678711 354.85595703 C-254.46215246 349.33238243 -254.49974373 343.80954562 -254.54553127 338.28617859 C-254.57538737 334.02916864 -254.58251264 329.77233378 -254.58351326 325.51522827 C-254.58770399 323.48038377 -254.60009192 321.4455382 -254.62103081 319.41079712 C-254.83007877 297.32476076 -254.83007877 297.32476076 -247.25828552 289.31616211 C-241.43875017 283.85421607 -235.78275008 282.05798421 -228.03125 281.19140625 C-228.04013245 280.05072189 -228.04901489 278.91003754 -228.0581665 277.73478699 C-228.13947834 266.95133543 -228.19932362 256.16794661 -228.23849869 245.38425732 C-228.25931652 239.84108323 -228.28752779 234.29815791 -228.33300781 228.75512695 C-228.37667293 223.3993875 -228.4004307 218.04388637 -228.41075897 212.68798256 C-228.41811336 210.65116948 -228.43247426 208.6143685 -228.45417023 206.5776577 C-228.58828415 193.45833619 -228.5604451 181.71745918 -219.85546875 171.0390625 C-211.4095518 162.4846327 -202.09081121 158.92902387 -190.23582458 158.6990509 C-189.16671341 158.69266098 -188.09760223 158.68627106 -186.99609375 158.6796875 C-185.87682999 158.6617363 -184.75756622 158.6437851 -183.60438538 158.62528992 C-180.05921094 158.57147449 -176.51416891 158.53738314 -172.96875 158.50390625 C-170.55271606 158.47070785 -168.13669954 158.43621588 -165.72070312 158.40039062 C-159.82433757 158.31576467 -153.92795426 158.24729395 -148.03125 158.19140625 C-149.94057399 156.43398386 -151.85086505 154.67763281 -153.76171875 152.921875 C-154.56603333 152.18124817 -154.56603333 152.18124817 -155.38659668 151.42565918 C-158.32588918 148.72653796 -161.29339602 146.07812479 -164.34375 143.50390625 C-171.22295449 137.49893399 -177.50739332 131.36701245 -178.30859375 121.921875 C-178.59536236 111.15084584 -177.05544076 104.5601083 -169.78466797 96.55737305 C-164.0727472 91.64921343 -156.97612065 89.13978627 -150.09375 86.25390625 C-148.41991802 85.53164615 -146.74708433 84.80706863 -145.07519531 84.08032227 C-141.55311887 82.55288288 -138.02601968 81.03800201 -134.49462891 79.53222656 C-128.99415817 77.18254202 -123.51624825 74.78333292 -118.04296875 72.37109375 C-117.13978409 71.97307053 -116.23659943 71.5750473 -115.30604553 71.16496277 C-113.50703891 70.3720213 -111.70807296 69.57898754 -109.90914917 68.78585815 C-106.54944636 67.30672432 -103.18678181 65.83443134 -99.82319641 64.364151 C-98.23804393 63.66993856 -96.65394252 62.97332056 -95.07096863 62.27415466 C-91.04062557 60.49527389 -86.99909456 58.75694794 -82.92675781 57.07617188 C-82.10012634 56.7277272 -81.27349487 56.37928253 -80.42181396 56.02027893 C-78.85149611 55.35872431 -77.27540486 54.71064789 -75.69293213 54.07872009 C-72.13769402 52.56311121 -70.39134099 51.73113523 -68.19750977 48.44287109 C-67.22249592 45.812476 -67.22249592 45.812476 -66.65234375 42.984375 C-63.83135301 30.29878773 -51.82009182 19.9250131 -41.41796875 13.2265625 C-28.65032236 5.55419368 -14.84491255 0.93737206 0 0 Z M-74.6015625 117.37890625 C-75.94541016 118.05566406 -75.94541016 118.05566406 -77.31640625 118.74609375 C-78.25355469 119.22304687 -79.19070312 119.7 -80.15625 120.19140625 C-81.57357422 120.90683594 -81.57357422 120.90683594 -83.01953125 121.63671875 C-85.35859592 122.81806454 -87.69571721 124.00309728 -90.03125 125.19140625 C-86.90181714 128.52216159 -83.36788425 130.4813079 -79.40625 132.69140625 C-78.68783936 133.09286865 -77.96942871 133.49433105 -77.22924805 133.90795898 C-70.66308649 137.50789653 -64.6915052 140.38985846 -57.03125 140.19140625 C-57.57394531 139.22460938 -58.11664063 138.2578125 -58.67578125 137.26171875 C-62.64358096 130.08070321 -66.20757906 123.26494946 -68.03125 115.19140625 C-70.69303221 115.19140625 -72.22624114 116.17621189 -74.6015625 117.37890625 Z M71.96875 115.19140625 C71.67742187 116.07441406 71.38609375 116.95742187 71.0859375 117.8671875 C68.3827328 125.78128679 65.2577287 132.96941462 60.96875 140.19140625 C73.37766878 139.28893943 83.40929611 132.2549945 93.96875 126.19140625 C90.26702831 123.11955867 86.12830301 121.12318873 81.84375 119.00390625 C80.75126953 118.45186523 80.75126953 118.45186523 79.63671875 117.88867188 C75.981544 115.89912096 75.981544 115.89912096 71.96875 115.19140625 Z " fill="#020101" transform="translate(254.03125,-0.19140625)"/>
<path d="M0 0 C60.06 0 120.12 0 182 0 C182 38.94 182 77.88 182 118 C121.94 118 61.88 118 0 118 C0 79.06 0 40.12 0 0 Z " fill="#FE636E" transform="translate(244,378)"/>
<path d="M0 0 C3.80720963 1.102087 7.14745829 2.5753325 10.625 4.4375 C19.01306397 8.63153198 26.75969501 10.05412921 36.08251953 10.20117188 C45.25242839 10.35464315 51.37625899 10.81602069 59.1328125 16.14453125 C72.73048441 24.94411457 90.27939011 24.58615692 105.78125 22.48828125 C108.6335973 21.83899693 111.26552956 21.03466449 114 20 C115.04414063 19.61328125 116.08828125 19.2265625 117.1640625 18.828125 C123.24066278 16.43806427 123.24066278 16.43806427 128.671875 12.87890625 C133.37863016 10.22168884 137.55627067 10.40348048 142.875 10.375 C152.10681924 10.25041405 159.5407438 9.23656165 168.125 5.5625 C169.65640625 4.90894531 169.65640625 4.90894531 171.21875 4.2421875 C173.38812534 3.2732811 175.51358641 2.27425699 177.625 1.1875 C180 0 180 0 182 0 C183.39599396 1.52837269 184.71587649 3.12650099 186 4.75 C186.79277344 5.74128906 187.58554687 6.73257813 188.40234375 7.75390625 C189.03245361 8.54498779 189.03245361 8.54498779 189.67529297 9.35205078 C191.93371504 12.16155115 194.24918584 14.9231728 196.5625 17.6875 C197.41799353 18.71221889 198.27346449 19.73695664 199.12890625 20.76171875 C200.05509766 21.86966797 200.05509766 21.86966797 201 23 C199.6981135 25.93533371 198.41648943 27.77144461 195.9453125 29.8125 C195.33647217 30.32409668 194.72763184 30.83569336 194.1003418 31.36279297 C193.12254761 32.17321045 193.12254761 32.17321045 192.125 33 C175.25013612 47.37975569 158.56530575 63.97518637 155 87 C154.80485643 90.36949666 154.74380102 93.73900735 154.68359375 97.11328125 C154.6524221 98.56760811 154.6524221 98.56760811 154.62062073 100.05131531 C154.55541059 103.13830707 154.4963732 106.22538152 154.4375 109.3125 C154.39428763 111.40951364 154.35067248 113.50651903 154.30664062 115.60351562 C154.19975849 120.73559307 154.09841104 125.86775341 154 131 C153.36312256 131.17539307 152.72624512 131.35078613 152.07006836 131.53149414 C140.52423835 134.71865119 129.00423429 137.95541265 117.5625 141.5 C109.03945713 144.12742106 100.47938403 146.58981535 91.875 148.9375 C90.76584229 149.24429688 89.65668457 149.55109375 88.51391602 149.8671875 C87.47549561 150.14691406 86.4370752 150.42664063 85.3671875 150.71484375 C84.45050293 150.96355225 83.53381836 151.21226074 82.58935547 151.46850586 C79.94049883 152.01221328 77.69337197 152.25748867 75 152 C73.2265625 149.8046875 73.2265625 149.8046875 71.625 146.875 C65.61305908 136.75987694 57.26445301 131.8037812 46.0612793 128.6418457 C42.43640959 127.88183434 38.84818457 127.620013 35.16015625 127.41796875 C34.46925903 127.37619507 33.77836182 127.33442139 33.06652832 127.29138184 C31.37794126 127.189906 29.68900049 127.0943449 28 127 C27.9906543 125.85635986 27.98130859 124.71271973 27.97167969 123.53442383 C27.93135701 119.23066362 27.86548825 114.92758699 27.79248047 110.62426758 C27.76451316 108.77312094 27.74318004 106.92186026 27.72900391 105.07055664 C27.51293534 78.429303 17.6854394 59.23105058 -1.08740234 40.61376953 C-5.44492079 36.39577436 -10.0317204 32.58195267 -14.85546875 28.90234375 C-17.01118429 26.99007878 -17.81667689 25.57048338 -19 23 C-18.13117188 22.01 -17.26234375 21.02 -16.3671875 20 C-7.85364637 10.26665652 -7.85364637 10.26665652 0 0 Z " fill="#6ED6A2" transform="translate(165,145)"/>
<path d="M0 0 C0.66581085 -0.01474869 1.3316217 -0.02949738 2.01760864 -0.04469299 C4.21012971 -0.08902683 6.40238588 -0.11740001 8.59521484 -0.1418457 C9.34917919 -0.15124491 10.10314354 -0.16064411 10.87995529 -0.17032814 C14.87372037 -0.21781995 18.86735587 -0.25152712 22.86132812 -0.27539062 C26.96083281 -0.30303115 31.05764704 -0.38215212 35.15616798 -0.47293377 C38.33063222 -0.53310986 41.50447192 -0.55269249 44.6794548 -0.56189919 C46.18891163 -0.57339527 47.69834027 -0.6000085 49.20723343 -0.64282799 C57.16457944 -0.85519248 63.04150587 -0.48345718 69.45996094 4.734375 C71.05798824 6.25439946 72.63476877 7.79733896 74.18115234 9.36987305 C75.41836502 10.42412903 76.66533489 11.46732674 77.93115234 12.48706055 C89.8031472 22.50411158 100.82399817 32.45855793 108.18115234 46.36987305 C108.62322021 47.12695557 109.06528809 47.88403809 109.52075195 48.6640625 C114.36158739 58.18757004 114.04302962 68.07022109 113.99780273 78.54394531 C113.99363608 81.69467214 114.05913898 84.83914512 114.12841797 87.98901367 C114.13589196 90.00788267 114.13929055 92.02677177 114.13818359 94.0456543 C114.1637886 94.97807449 114.18939362 95.91049469 114.21577454 96.87117004 C114.14639624 100.808956 114.04032886 103.35663357 111.43466187 106.42953491 C109.29711914 108.27294922 109.29711914 108.27294922 107.17216492 109.82316589 C101.00220357 114.61626639 97.84934129 123.33418936 96.84838867 130.87768555 C96.66995852 133.39761593 96.56221912 135.90715673 96.49365234 138.43237305 C96.45949219 139.29797852 96.42533203 140.16358398 96.39013672 141.05541992 C96.3087512 143.15981691 96.24325466 145.26481875 96.18115234 147.36987305 C82.10290007 152.92909832 67.20232823 151.83844928 52.33746338 151.64453125 C48.81735901 151.60307601 45.29713532 151.58523073 41.77685547 151.56518555 C34.9113337 151.52271903 28.04627764 151.45475778 21.18115234 151.36987305 C21.17704346 150.68997314 21.17293457 150.01007324 21.16870117 149.30957031 C21.13549345 146.18299728 21.06482063 143.05830337 20.99365234 139.93237305 C20.98785156 138.8630957 20.98205078 137.79381836 20.97607422 136.69213867 C20.75273998 128.57766143 19.10395771 122.50445641 13.42651367 116.52050781 C5.87308661 109.40865521 -1.76306604 108.88121606 -11.75634766 108.68237305 C-12.91714844 108.64821289 -14.07794922 108.61405273 -15.27392578 108.57885742 C-18.12213648 108.4968102 -20.97005605 108.42751768 -23.81884766 108.36987305 C-23.91165942 96.64318054 -23.98266954 84.91657589 -24.02609634 73.18959045 C-24.04694245 67.74385575 -24.07520596 62.29837295 -24.12060547 56.8527832 C-24.16416901 51.59431493 -24.18800715 46.33608846 -24.19835663 41.07745361 C-24.20572912 39.07444453 -24.22012588 37.07144821 -24.24176788 35.06854248 C-24.27094144 32.25593803 -24.27479782 29.44432398 -24.27294922 26.6315918 C-24.28733032 25.8094368 -24.30171143 24.9872818 -24.31652832 24.14021301 C-24.26879567 17.39797612 -22.31662035 12.22021406 -17.85400391 7.12768555 C-17.20302734 6.58885742 -16.55205078 6.0500293 -15.88134766 5.49487305 C-15.23294922 4.94057617 -14.58455078 4.3862793 -13.91650391 3.81518555 C-9.39628802 0.70069788 -5.43593554 0.10291407 0 0 Z " fill="#FD636E" transform="translate(64.81884765625,173.630126953125)"/>
<path d="M0 0 C1.53451973 0.00665263 3.06905777 0.00986836 4.60359192 0.00984192 C7.80074638 0.01907713 10.99559686 0.05798734 14.19213867 0.12084961 C18.27088422 0.20030503 22.34737063 0.22250907 26.42681408 0.22469616 C29.5884613 0.22968845 32.74963412 0.25602221 35.91109657 0.28957558 C37.4144239 0.30471477 38.91780279 0.31545027 40.42119408 0.32152367 C49.64652188 0.38074242 56.89656058 0.63977646 64.13671875 6.984375 C64.67554688 7.63535156 65.214375 8.28632813 65.76953125 8.95703125 C66.32382812 9.60542969 66.878125 10.25382813 67.44921875 10.921875 C71.05634484 16.15708233 71.17466751 20.79134526 71.12158203 26.94067383 C71.12187408 27.82897888 71.12216614 28.71728394 71.12246704 29.63250732 C71.12107707 32.55979279 71.10553148 35.48682166 71.08984375 38.4140625 C71.08611244 40.4471574 71.08326602 42.4802541 71.08126831 44.51335144 C71.07364118 49.85795071 71.05400052 55.20244085 71.03186035 60.54699707 C71.01138215 66.00332157 71.00226237 71.45966375 70.9921875 76.91601562 C70.97075381 87.61723538 70.9366289 98.31837423 70.89453125 109.01953125 C70.1895752 109.02364014 69.48461914 109.02774902 68.75830078 109.03198242 C65.51123804 109.06522426 62.26597643 109.13590127 59.01953125 109.20703125 C57.35664063 109.21573242 57.35664063 109.21573242 55.66015625 109.22460938 C47.32925444 109.44513325 40.23664645 110.96744495 33.98291016 116.8034668 C32.4319547 118.4842062 31.13609732 120.09723114 29.89453125 122.01953125 C29.36085938 122.82777344 28.8271875 123.63601563 28.27734375 124.46875 C26.23445774 129.71446576 26.32298701 134.81289379 26.20703125 140.39453125 C26.10390625 144.23078125 26.00078125 148.06703125 25.89453125 152.01953125 C11.37453125 152.01953125 -3.14546875 152.01953125 -18.10546875 152.01953125 C-18.10546875 145.41953125 -18.10546875 138.81953125 -18.10546875 132.01953125 C-19.58834813 127.25634294 -20.67552046 124.13317467 -23.10546875 120.01953125 C-23.61335938 119.12878906 -24.12125 118.23804688 -24.64453125 117.3203125 C-30.27209486 108.39889057 -39.01957601 101.94943945 -49.34765625 99.484375 C-52.70194809 98.91899153 -56.02401443 98.67906564 -59.41796875 98.45703125 C-61.29935547 98.33134766 -61.29935547 98.33134766 -63.21875 98.203125 C-64.17136719 98.14253906 -65.12398438 98.08195312 -66.10546875 98.01953125 C-66.2303374 92.68514259 -66.32039746 87.35162967 -66.38012695 82.01611328 C-66.40506089 80.20639196 -66.43902118 78.39676911 -66.48266602 76.58740234 C-66.73800977 65.71877041 -66.63457951 56.74343904 -61.10546875 47.01953125 C-60.55093018 46.04242188 -59.9963916 45.0653125 -59.42504883 44.05859375 C-55.45054539 37.31263303 -50.51203626 31.64895011 -45.10546875 26.01953125 C-44.53054688 25.40464844 -43.955625 24.78976563 -43.36328125 24.15625 C-38.89576867 19.50704433 -33.96569954 15.4117568 -28.85890198 11.48127747 C-26.97943562 9.96274564 -26.97943562 9.96274564 -24.9495697 7.83256531 C-17.10978713 0.38712937 -10.30059589 -0.25158063 0 0 Z " fill="#FD636E" transform="translate(400.10546875,172.98046875)"/>
<path d="M0 0 C0.80448578 -0.00953201 1.60897156 -0.01906403 2.43783569 -0.02888489 C3.30349152 -0.02797348 4.16914734 -0.02706207 5.06103516 -0.02612305 C5.95496979 -0.03040817 6.84890442 -0.0346933 7.76992798 -0.03910828 C9.66122592 -0.04485136 11.55254596 -0.045352 13.44384766 -0.04101562 C16.33225412 -0.03786128 19.21963077 -0.06129524 22.10791016 -0.08666992 C23.94645053 -0.08894353 25.78499366 -0.08964612 27.62353516 -0.08862305 C28.48514252 -0.09783279 29.34674988 -0.10704254 30.23446655 -0.11653137 C35.96313858 -0.07252159 39.41746107 0.69566508 43.58398914 4.8969841 C45.52892969 8.2212645 45.38032987 11.30237597 45.33586121 15.04473877 C45.33842448 15.83219852 45.34098776 16.61965827 45.3436287 17.43098044 C45.34857386 20.07211456 45.33206181 22.71267823 45.31567383 25.35375977 C45.31482771 27.2459512 45.31530239 29.13814361 45.31700134 31.03033447 C45.31786333 36.17051556 45.3002046 41.31048733 45.27927947 46.4506197 C45.26054659 51.82113399 45.2587649 57.1916529 45.25520325 62.56219482 C45.24587282 72.73357378 45.22124551 82.9048562 45.19115478 93.07619262 C45.15764183 104.65525342 45.14113257 116.23431879 45.12606847 127.813416 C45.09469684 151.63389595 45.03967227 175.45424353 44.97509766 199.2746582 C26.49509766 199.2746582 8.01509766 199.2746582 -11.02490234 199.2746582 C-11.05068359 193.69043945 -11.07646484 188.1062207 -11.10302734 182.3527832 C-11.12819222 178.81627883 -11.15452219 175.27986029 -11.18505859 171.7434082 C-11.23342229 166.1294725 -11.27745583 160.51573544 -11.29589844 154.90161133 C-11.3110363 150.37561199 -11.34543032 145.85013205 -11.39321136 141.32436371 C-11.40805489 139.59724185 -11.41594506 137.87004585 -11.41678619 136.14286041 C-11.41914876 133.72431488 -11.4461686 131.30721306 -11.47900391 128.88891602 C-11.47397354 128.17393951 -11.46894318 127.45896301 -11.46376038 126.72232056 C-11.53447588 123.35853534 -11.80222753 121.56567736 -13.871521 118.86126709 C-16.02629498 117.10299936 -16.02629498 117.10299936 -19.02490234 116.2746582 C-19.02490234 110.9946582 -19.02490234 105.7146582 -19.02490234 100.2746582 C-17.04490234 99.2846582 -15.06490234 98.2946582 -13.02490234 97.2746582 C-11.43368974 94.092233 -11.88073772 90.65163551 -11.88305664 87.15649414 C-11.87958221 86.31727921 -11.87610779 85.47806427 -11.87252808 84.61341858 C-11.86516558 82.78713394 -11.85982283 80.96084033 -11.85623741 79.13454437 C-11.84908052 76.24263731 -11.83341912 73.35090076 -11.81489563 70.45904541 C-11.76239426 62.23533489 -11.71445818 54.01171625 -11.69897461 45.7878418 C-11.68888744 40.76032256 -11.65954185 35.73322987 -11.6176548 30.70587921 C-11.60534797 28.79060341 -11.60022296 26.87526735 -11.60245323 24.95995331 C-11.60480881 22.27630706 -11.58261993 19.59388154 -11.55493164 16.91040039 C-11.56153305 16.12159988 -11.56813446 15.33279938 -11.57493591 14.52009583 C-11.48738377 9.34189585 -10.4461252 6.38015471 -7.02490234 2.2746582 C-3.9948548 0.25462651 -3.39893813 0.02216225 0 0 Z " fill="#AA685C" transform="translate(26.02490234375,296.725341796875)"/>
<path d="M0 0 C0.89297791 -0.00807175 1.78595581 -0.01614349 2.70599365 -0.02445984 C4.59906063 -0.03830445 6.49215262 -0.04902491 8.38525391 -0.05688477 C11.2716451 -0.07406855 14.15688222 -0.11794717 17.04296875 -0.16210938 C18.88280408 -0.17223895 20.72264915 -0.18075422 22.5625 -0.1875 C23.42208313 -0.20500809 24.28166626 -0.22251617 25.16729736 -0.24055481 C30.59352778 -0.22105121 33.80988883 0.51805053 38.046875 4.23828125 C40.71255635 8.00798668 40.32528791 12.18538207 40.30224609 16.61523438 C40.30586655 17.45795395 40.309487 18.30067352 40.31321716 19.16893005 C40.32010362 20.99627094 40.32261801 22.82363236 40.32126999 24.65098572 C40.32030481 27.54257126 40.33324509 30.43378504 40.35025024 33.32531738 C40.39653192 41.54546246 40.42113898 49.76556895 40.42773438 57.98583984 C40.43274309 63.01563085 40.45695791 68.04503252 40.49306107 73.07469177 C40.5028717 74.99162969 40.50518414 76.90862107 40.49988937 78.82557678 C40.49283543 81.50458548 40.51006508 84.18242955 40.53271484 86.86132812 C40.52454239 87.65417709 40.51636993 88.44702606 40.50794983 89.26390076 C40.56112828 92.79425532 40.7446839 94.83510648 42.89151001 97.69934082 C45.05706101 99.40495874 45.05706101 99.40495874 48.046875 100.23828125 C48.046875 105.51828125 48.046875 110.79828125 48.046875 116.23828125 C46.066875 117.22828125 44.086875 118.21828125 42.046875 119.23828125 C40.54709009 122.23785107 40.86778796 125.3336214 40.84155273 128.62548828 C40.83165314 129.38655884 40.82175354 130.14762939 40.81155396 130.9317627 C40.77990822 133.45317449 40.75516943 135.97460513 40.73046875 138.49609375 C40.70990187 140.24201961 40.68890547 141.98794047 40.66749573 143.7338562 C40.61224754 148.33367867 40.5628504 152.93354628 40.51464844 157.53344727 C40.45563138 163.05011443 40.38938832 168.56669892 40.32434845 174.08329773 C40.22630437 182.46824184 40.13747201 190.85323846 40.046875 199.23828125 C21.566875 199.23828125 3.086875 199.23828125 -15.953125 199.23828125 C-16.06596689 174.30820881 -16.15808293 149.37834296 -16.21218586 124.44808006 C-16.23797382 112.87268307 -16.27313588 101.29745594 -16.33032227 89.72216797 C-16.38013884 79.63382404 -16.4124117 69.54560312 -16.42356747 59.45713961 C-16.43008914 54.11469778 -16.44542954 48.77260788 -16.48177528 43.43027878 C-16.51570697 38.40205622 -16.52618358 33.37433066 -16.51866341 28.34600449 C-16.52003921 26.50050659 -16.52998851 24.65499211 -16.54915237 22.8095932 C-16.574047 20.28874235 -16.56804432 17.76976545 -16.55439758 15.24887085 C-16.56896179 14.51928583 -16.583526 13.7897008 -16.59853154 13.03800714 C-16.51570683 7.37429714 -14.82489584 5.07177116 -10.953125 1.23828125 C-7.5683713 -0.4540956 -3.7250489 0.03171294 0 0 Z " fill="#AA685C" transform="translate(456.953125,296.76171875)"/>
<path d="M0 0 C22.44 0 44.88 0 68 0 C70.31 7.92 72.62 15.84 75 24 C76.07894531 27.36251953 76.07894531 27.36251953 77.1796875 30.79296875 C82.23827486 46.61817269 83.1407067 61.47319643 83 78 C82.41629639 78.11174561 81.83259277 78.22349121 81.23120117 78.33862305 C69.74720715 80.68593207 59.9867745 86.2910316 53.375 96.125 C49.1376857 103.06219599 46.58990508 110.05047461 45 118 C30.15 118 15.3 118 0 118 C0 79.06 0 40.12 0 0 Z " fill="#FD636E" transform="translate(86,378)"/>
<path d="M0 0 C6.35276297 3.6111519 12.85493208 9.81604921 15.33984375 16.859375 C16.76047404 24.49018914 17.3933196 32.51937057 13.0625 39.25 C11.37109375 41.3359375 11.37109375 41.3359375 9.75 43.0625 C9.04875 43.825625 8.3475 44.58875 7.625 45.375 C-1.65160974 50.81996659 -12.96727232 52.50887328 -23.375 54.75 C-24.93809728 55.09178704 -26.50108283 55.43408543 -28.06396484 55.77685547 C-41.22151147 58.65446433 -54.39617557 61.45434099 -67.56887817 64.26159668 C-81.34117162 67.19719399 -95.07536452 70.26138994 -108.78271484 73.48852539 C-111.86684355 74.20599883 -114.95811653 74.8884222 -118.05053711 75.5690918 C-120.33576061 76.08173878 -122.61311827 76.62212003 -124.890625 77.16796875 C-126.42708333 77.52864583 -127.96354167 77.88932292 -129.5 78.25 C-130.66402344 78.53520508 -130.66402344 78.53520508 -131.8515625 78.82617188 C-132.60695312 79.00083984 -133.36234375 79.17550781 -134.140625 79.35546875 C-134.81125977 79.5155542 -135.48189453 79.67563965 -136.17285156 79.84057617 C-138.70602798 80.11122231 -140.78714165 79.65998708 -143.25 79.0625 C-144.8215752 73.56464664 -146.38802074 68.0653678 -147.94970703 62.56469727 C-148.48182291 60.69320125 -149.01534434 58.82210428 -149.55029297 56.95141602 C-150.3184709 54.26421845 -151.08160134 51.57563165 -151.84375 48.88671875 C-152.08436157 48.04912521 -152.32497314 47.21153168 -152.57287598 46.34855652 C-152.79310425 45.56797379 -153.01333252 44.78739105 -153.24023438 43.9831543 C-153.43564819 43.29698532 -153.63106201 42.61081635 -153.83239746 41.90385437 C-154.25 40.0625 -154.25 40.0625 -154.25 37.0625 C-147.79267937 35.20479543 -141.33428067 33.35087806 -134.875 31.5 C-133.91483978 31.22483551 -132.95467957 30.94967102 -131.96542358 30.66616821 C-120.68731705 27.43702276 -109.40417905 24.24940068 -98.0625 21.25 C-89.26943131 18.92215627 -80.56557942 16.38079951 -71.8762207 13.69287109 C-56.77788954 9.03817373 -41.52995663 4.85788239 -26.23828125 0.88671875 C-23.21934088 0.09269672 -23.21934088 0.09269672 -20.21484375 -1.015625 C-13.45862438 -3.11637305 -6.47510367 -2.89780874 0 0 Z " fill="#A9685C" transform="translate(352.25,287.9375)"/>
<path d="M0 0 C2.60391202 1.7822893 5.13495638 3.64032381 7.6640625 5.52734375 C8.22303223 5.93355957 8.78200195 6.33977539 9.35791016 6.75830078 C11.15640215 8.06544966 12.9426281 9.38791396 14.7265625 10.71484375 C15.58556152 11.33866943 15.58556152 11.33866943 16.46191406 11.97509766 C18.58626777 13.58283839 20.37427886 14.97710679 21.62890625 17.359375 C21.80391566 28.15162182 16.66715118 38.91939059 10.6640625 47.52734375 C10.20257813 48.19121094 9.74109375 48.85507813 9.265625 49.5390625 C2.57882277 58.13914052 -7.33720615 63.6597685 -17.3359375 67.52734375 C-18.19445312 67.89214844 -19.05296875 68.25695312 -19.9375 68.6328125 C-32.86031676 72.03433553 -48.62872031 71.0105556 -60.3359375 64.52734375 C-61.2434375 64.04652344 -62.1509375 63.56570312 -63.0859375 63.0703125 C-76.17714574 55.6870269 -83.13484846 46.06887854 -89.3359375 32.52734375 C-89.70976562 31.71265625 -90.08359375 30.89796875 -90.46875 30.05859375 C-91.49228695 27.07097237 -91.75341027 24.36234008 -91.9609375 21.21484375 C-92.03570312 20.14621094 -92.11046875 19.07757813 -92.1875 17.9765625 C-92.23648438 17.16832031 -92.28546875 16.36007813 -92.3359375 15.52734375 C-90.43134766 15.48867187 -90.43134766 15.48867187 -88.48828125 15.44921875 C-65.29485829 14.77871839 -46.496546 6.50054303 -25.83203125 -3.37890625 C-16.25357332 -7.57603962 -8.48949321 -5.35207181 0 0 Z " fill="#FCD0A3" transform="translate(291.3359375,84.47265625)"/>
<path d="M0 0 C2.62093833 2.25625119 5.10760211 4.60807157 7.5859375 7.01953125 C10.66510074 9.5456409 13.11373305 10.07094214 16.97265625 10.640625 C22.04973444 11.54060803 25.17810525 14.88848527 28.1875 18.8125 C35.99862264 31.50301159 34.3632186 47.70781386 34 62 C33.17113281 61.44441406 32.34226562 60.88882813 31.48828125 60.31640625 C12.92921508 47.45122252 12.92921508 47.45122252 -9 45 C-17.32591054 47.14806327 -25.0261299 50.73305914 -32.75 54.4375 C-49.11478463 62.03926335 -61.86064709 65.88725096 -80 65 C-80.0999677 60.76829049 -80.17197673 56.5372329 -80.21972656 52.3046875 C-80.23966189 50.86934413 -80.26682074 49.43408003 -80.30175781 47.99902344 C-80.63588688 33.90663878 -77.87701556 24.44288624 -68 14 C-52.19801238 -1.17100547 -20.40795956 -13.10951979 0 0 Z " fill="#544D55" transform="translate(279,20)"/>
<path d="M0 0 C2.72977064 -0.08126109 5.4571017 -0.14061663 8.1875 -0.1875 C8.95642578 -0.21263672 9.72535156 -0.23777344 10.51757812 -0.26367188 C15.19291468 -0.32386934 18.22898244 -0.06782964 22 3 C24.95847066 5.9805359 25.35065814 8.39627922 25.38724393 12.54156327 C25.37413614 13.64467933 25.37413614 13.64467933 25.36076355 14.77008057 C25.36332682 15.55754032 25.3658901 16.34500007 25.36853105 17.15632224 C25.3734762 19.79745636 25.35696416 22.43802003 25.34057617 25.07910156 C25.33973006 26.97129299 25.34020474 28.86348541 25.34190369 30.75567627 C25.34276567 35.89585736 25.32510695 41.03582912 25.30418181 46.17596149 C25.28544893 51.54647579 25.28366725 56.9169947 25.28010559 62.28753662 C25.27077516 72.45891558 25.24614785 82.630198 25.21605712 92.80153441 C25.18254417 104.38059522 25.16603491 115.95966059 25.15097082 127.5387578 C25.11959919 151.35922724 25.06621615 175.17960415 25 199 C17.74 199 10.48 199 3 199 C3 151.48 3 103.96 3 55 C2.01 55.495 2.01 55.495 1 56 C-4.84923339 56.46422487 -4.84923339 56.46422487 -7 56 C-11.08557931 51.58759934 -10.48015424 47.21566812 -10.4375 41.5 C-10.45748047 40.54996094 -10.47746094 39.59992188 -10.49804688 38.62109375 C-10.49524918 34.64276683 -10.44043264 31.81744298 -8.53515625 28.28125 C-4.64646561 26.31593331 -1.1694701 27.18036058 3 28 C2.88944447 24.45772899 2.75897691 20.9164564 2.625 17.375 C2.5940625 16.37597656 2.563125 15.37695312 2.53125 14.34765625 C2.32760852 9.22267899 2.01388817 4.79731083 0 0 Z " fill="#935B50" transform="translate(46,297)"/>
<path d="M0 0 C12.87 0 25.74 0 39 0 C39 38.94 39 77.88 39 118 C26.13 118 13.26 118 0 118 C0 79.06 0 40.12 0 0 Z " fill="#F94354" transform="translate(387,378)"/>
<path d="M0 0 C13.95906226 -0.68839211 13.95906226 -0.68839211 17.75 1.75 C21.64692181 5.64692181 22.22708975 8.43093652 22.26786804 13.97438049 C22.26168205 15.16365395 22.26168205 15.16365395 22.25537109 16.37695312 C22.25899155 17.2196727 22.262612 18.06239227 22.26634216 18.9306488 C22.27322862 20.75798969 22.27574301 22.58535111 22.27439499 24.41270447 C22.27342981 27.30429001 22.28637009 30.19550379 22.30337524 33.08703613 C22.34965692 41.30718121 22.37426398 49.5272877 22.38085938 57.74755859 C22.38586809 62.7773496 22.41008291 67.80675127 22.44618607 72.83641052 C22.4559967 74.75334844 22.45830914 76.67033982 22.45301437 78.58729553 C22.44596043 81.26630423 22.46319008 83.9441483 22.48583984 86.62304688 C22.47766739 87.41589584 22.46949493 88.20874481 22.46107483 89.02561951 C22.51425328 92.55597407 22.6978089 94.59682523 24.84463501 97.46105957 C27.01018601 99.16667749 27.01018601 99.16667749 30 100 C30 105.28 30 110.56 30 116 C28.02 116.99 26.04 117.98 24 119 C22.50021509 121.99956982 22.82091296 125.09534015 22.79467773 128.38720703 C22.78477814 129.14827759 22.77487854 129.90934814 22.76467896 130.69348145 C22.73303322 133.21489324 22.70829443 135.73632388 22.68359375 138.2578125 C22.66302687 140.00373836 22.64203047 141.74965922 22.62062073 143.49557495 C22.56537254 148.09539742 22.5159754 152.69526503 22.46777344 157.29516602 C22.41757845 161.98718289 22.36188195 166.67913405 22.30664062 171.37109375 C22.19902544 180.58067517 22.0980962 189.79031227 22 199 C15.73 199 9.46 199 3 199 C2.67 150.49 2.34 101.98 2 52 C1.34 52 0.68 52 0 52 C-0.66 53.32 -1.32 54.64 -2 56 C-3.85625 56.1546875 -3.85625 56.1546875 -5.75 56.3125 C-6.79414063 56.39951172 -6.79414063 56.39951172 -7.859375 56.48828125 C-10 56 -10 56 -12.234375 54.07421875 C-14.67901968 49.81772459 -14.58864521 46.32377664 -14.5 41.5 C-14.51546875 40.65824219 -14.5309375 39.81648438 -14.546875 38.94921875 C-14.52104078 34.84803671 -14.31504404 32.53163681 -12.1875 28.94140625 C-10 27 -10 27 -6.5 26.4375 C-2.53454327 27.07480555 -1.39936603 27.8623675 1 31 C1.33 31.66 1.66 32.32 2 33 C2.05813173 28.43755363 2.09364122 23.87520276 2.125 19.3125 C2.14175781 18.01892578 2.15851563 16.72535156 2.17578125 15.39257812 C2.18222656 14.14541016 2.18867188 12.89824219 2.1953125 11.61328125 C2.20578613 10.46641846 2.21625977 9.31955566 2.22705078 8.13793945 C2.00058489 5.00808345 1.33456032 2.81920095 0 0 Z " fill="#935B50" transform="translate(475,297)"/>
<path d="M0 0 C0 9.57 0 19.14 0 29 C-17.21018296 38.13463557 -17.21018296 38.13463557 -25.0546875 42.0078125 C-26.04581543 42.49725342 -27.03694336 42.98669434 -28.05810547 43.4909668 C-29.99458992 44.44313861 -31.93366465 45.39006338 -33.87548828 46.33129883 C-34.76220215 46.76724365 -35.64891602 47.20318848 -36.5625 47.65234375 C-37.34753906 48.03382568 -38.13257813 48.41530762 -38.94140625 48.80834961 C-41.03513937 50.02034099 -42.47513497 51.12519035 -44 53 C-44.51200735 56.43776366 -44.57043703 58.21564908 -42.5 61.0625 C-39.15993861 63.65104758 -35.63320614 65.84829539 -32 68 C-33.69011774 72.06622445 -36.52170418 75.15245547 -39.375 78.4375 C-40.34177084 79.56066024 -41.30792634 80.68435046 -42.2734375 81.80859375 C-42.73459961 82.34468262 -43.19576172 82.88077148 -43.67089844 83.43310547 C-45.49545799 85.58410165 -47.25329717 87.78557817 -49 90 C-53.52665536 89.12485885 -56.21062529 86.49810882 -59.5625 83.5 C-60.8219504 82.39473131 -62.08237674 81.29057375 -63.34375 80.1875 C-63.96507813 79.64222656 -64.58640625 79.09695312 -65.2265625 78.53515625 C-67.62264768 76.46101203 -70.08802092 74.47958327 -72.5625 72.5 C-76.84325347 69.01551763 -80.98192224 65.40234168 -85.0625 61.6875 C-85.62332275 61.18347656 -86.18414551 60.67945313 -86.76196289 60.16015625 C-90.79910689 56.44063821 -92.76929941 54.07630528 -93.375 48.625 C-92.92048497 44.23135474 -91.73279881 42.44333212 -89 39 C-86.05004883 37.10473633 -86.05004883 37.10473633 -82.64453125 35.51953125 C-82.02906937 35.22851028 -81.41360748 34.93748932 -80.77949524 34.63764954 C-78.86145509 33.73847826 -76.93319643 32.86604284 -75 32 C-73.85192871 31.47970215 -72.70385742 30.9594043 -71.52099609 30.42333984 C-67.92096844 28.81839764 -64.30671613 27.24846183 -60.6875 25.6875 C-58.63198415 24.79627045 -56.57703657 23.90374003 -54.52215576 23.01104736 C-53.05916206 22.37549698 -51.59598321 21.74037265 -50.13262939 21.10565186 C-44.03465865 18.45802241 -37.95160605 15.7772892 -31.87109375 13.08984375 C-29.98545946 12.25750827 -28.09979877 11.42523263 -26.21411133 10.59301758 C-23.42433007 9.36175231 -20.6350344 8.12944818 -17.84725952 6.89364624 C-15.24598059 5.74087747 -12.64274743 4.59263439 -10.0390625 3.4453125 C-8.8616172 2.92136147 -8.8616172 2.92136147 -7.66038513 2.38682556 C-2.22762067 0 -2.22762067 0 0 0 Z " fill="#FBCFA2" transform="translate(184,69)"/>
<path d="M0 0 C6.02312143 1.89311312 11.76861045 4.10463342 17.50390625 6.73828125 C18.68749977 7.27474022 18.68749977 7.27474022 19.89500427 7.82203674 C21.58067117 8.58642146 23.26547222 9.35271807 24.94946289 10.12078857 C29.4009341 12.1509431 33.85870956 14.16715396 38.31640625 16.18359375 C39.21428864 16.59007141 40.11217102 16.99654907 41.03726196 17.41534424 C50.96492644 21.90193128 60.94907057 26.25712948 70.94750977 30.58325195 C90.12734715 38.89561268 90.12734715 38.89561268 93 45 C93.83202659 50.82418613 92.45084504 53.39320686 89 58 C86.9123186 60.2186404 84.69670851 62.2702272 82.4375 64.3125 C81.81762207 64.88009033 81.19774414 65.44768066 80.55908203 66.0324707 C76.0757657 70.10595959 71.47938022 74.01334862 66.73828125 77.78515625 C64.7114093 79.4245805 62.74601502 81.08545493 60.79296875 82.80859375 C59.98496826 83.51205933 59.98496826 83.51205933 59.16064453 84.22973633 C57.64337711 85.55439006 56.13585106 86.89017735 54.62890625 88.2265625 C52 90 52 90 50.01538086 89.79736328 C47.68225399 88.87428728 46.71980735 87.93592622 45.125 86.015625 C44.61453125 85.40976563 44.1040625 84.80390625 43.578125 84.1796875 C42.79695313 83.22449219 42.79695313 83.22449219 42 82.25 C41.47921875 81.62867188 40.9584375 81.00734375 40.421875 80.3671875 C39.4051498 79.15019825 38.39577395 77.92702415 37.39453125 76.69726562 C36.14976222 75.18227363 34.8589684 73.70536799 33.5625 72.234375 C33.046875 71.49703125 32.53125 70.7596875 32 70 C33.27065176 66.18804471 34.55566607 65.85047524 38 63.9375 C41.65467691 62.10856437 41.65467691 62.10856437 44 59 C44.50042146 56.08461971 44.50042146 56.08461971 44 53 C40.0019578 49.12794652 35.18011172 46.90375294 30.234375 44.48828125 C28.98337006 43.86774117 28.98337006 43.86774117 27.70709229 43.23466492 C25.0575229 41.92153326 22.40400515 40.61663982 19.75 39.3125 C17.08243908 37.99623771 14.41574154 36.67826635 11.75006104 35.35820007 C10.09420861 34.53878071 8.43713267 33.72182839 6.77874756 32.907547 C1.11063434 30.11063434 1.11063434 30.11063434 0 29 C-0.08775605 26.85441173 -0.10695219 24.70595579 -0.09765625 22.55859375 C-0.09443359 21.25341797 -0.09121094 19.94824219 -0.08789062 18.60351562 C-0.07953401 17.2148431 -0.07106905 15.82617123 -0.0625 14.4375 C-0.05748666 13.04492344 -0.05292347 11.65234519 -0.04882812 10.25976562 C-0.03699434 6.8398013 -0.0205088 3.41992156 0 0 Z " fill="#FBCFA2" transform="translate(328,69)"/>
<path d="M0 0 C8.98863096 -0.0929248 17.97709505 -0.16387837 26.9661026 -0.20724869 C31.14066101 -0.22807062 35.31488933 -0.25628851 39.48925781 -0.30175781 C43.52228513 -0.34540966 47.55499614 -0.36917763 51.58824158 -0.37950897 C53.12235997 -0.38686585 54.65646222 -0.40123192 56.19044495 -0.42292023 C65.59941719 -0.55058689 72.84271061 -0.51936683 80.2421875 5.96484375 C80.78101563 6.61582031 81.31984375 7.26679688 81.875 7.9375 C82.42929687 8.58589844 82.98359375 9.23429688 83.5546875 9.90234375 C87.16181359 15.13755108 87.28013626 19.77181401 87.22705078 25.92114258 C87.22734283 26.80944763 87.22763489 27.69775269 87.22793579 28.61297607 C87.22654582 31.54026154 87.21100023 34.46729041 87.1953125 37.39453125 C87.19158119 39.42762615 87.18873477 41.46072285 87.18673706 43.49382019 C87.17910993 48.83841946 87.15946927 54.1829096 87.1373291 59.52746582 C87.1168509 64.98379032 87.10773112 70.4401325 87.09765625 75.89648438 C87.07622255 86.59771185 87.04104783 97.29882977 87 108 C78.42 108.33 69.84 108.66 61 109 C60.9906543 106.26541504 60.98130859 103.53083008 60.97167969 100.71337891 C60.93783049 91.65284706 60.88223737 82.59254108 60.81609726 73.53219032 C60.77667942 68.04179355 60.74446295 62.55155581 60.72900391 57.06103516 C60.71379993 51.75698492 60.67928778 46.45337203 60.63169098 41.14951706 C60.61691576 39.13149198 60.60896121 37.11340446 60.60811615 35.09532547 C60.91091295 20.48961209 60.91091295 20.48961209 56 7 C55.50016602 5.98333252 55.00033203 4.96666504 54.48535156 3.91918945 C50.24256689 0.64290946 45.43481397 1.27465602 40.234375 1.29296875 C38.51157318 1.27028679 38.51157318 1.27028679 36.75396729 1.24714661 C33.08578017 1.20416077 29.41841424 1.19542055 25.75 1.1875 C23.26299883 1.16436435 20.77601732 1.13900098 18.2890625 1.11132812 C12.19270064 1.04836805 6.0966611 1.01352032 0 1 C0 0.67 0 0.34 0 0 Z " fill="#F84354" transform="translate(384,174)"/>
<path d="M0 0 C5.18970492 6.54354099 4.86815424 13.99823874 4 22 C2.53583028 25.58181115 0.63725911 28.19116018 -2 31 C-2.70125 31.763125 -3.4025 32.52625 -4.125 33.3125 C-13.40160974 38.75746659 -24.71727232 40.44637328 -35.125 42.6875 C-36.68809728 43.02928704 -38.25108283 43.37158543 -39.81396484 43.71435547 C-52.97151147 46.59196433 -66.14617557 49.39184099 -79.31887817 52.19909668 C-93.09117162 55.13469399 -106.82536452 58.19888994 -120.53271484 61.42602539 C-123.61684355 62.14349883 -126.70811653 62.8259222 -129.80053711 63.5065918 C-132.08576061 64.01923878 -134.36311827 64.55962003 -136.640625 65.10546875 C-138.17708333 65.46614583 -139.71354167 65.82682292 -141.25 66.1875 C-142.41402344 66.47270508 -142.41402344 66.47270508 -143.6015625 66.76367188 C-144.35695312 66.93833984 -145.11234375 67.11300781 -145.890625 67.29296875 C-146.56125977 67.4530542 -147.23189453 67.61313965 -147.92285156 67.77807617 C-150 68 -150 68 -155 67 C-156.32 62.05 -157.64 57.1 -159 52 C-157.79577393 51.74307373 -156.59154785 51.48614746 -155.35083008 51.22143555 C-150.82358082 50.25523012 -146.29663601 49.28760459 -141.76977539 48.31958008 C-139.82161419 47.90318535 -137.87337389 47.48716051 -135.92504883 47.0715332 C-125.26286906 44.79675236 -114.61361743 42.49277279 -104 40 C-92.31933222 37.30872427 -80.62280326 34.68922508 -68.91967773 32.09765625 C-65.802782 31.40727371 -62.68642402 30.71454022 -59.57055664 30.01953125 C-58.80242142 29.84820679 -58.03428619 29.67688232 -57.24287415 29.50036621 C-55.70549231 29.15742998 -54.16812851 28.8144129 -52.63078308 28.47131348 C-47.84369224 27.40481321 -43.05220246 26.36130165 -38.2578125 25.328125 C-35.96345782 24.82329758 -33.66918137 24.31811444 -31.375 23.8125 C-29.84987793 23.49261108 -29.84987793 23.49261108 -28.29394531 23.16625977 C-18.61908912 21.00532435 -8.94216779 17.36855297 -3 9 C-1.68659288 6.05890619 -0.74542394 3.13078054 0 0 Z " fill="#915A4F" transform="translate(364,300)"/>
<path d="M0 0 C0 24.75 0 49.5 0 75 C-14.85 75 -29.7 75 -45 75 C-45.33 67.08 -45.66 59.16 -46 51 C-44.02 50.01 -42.04 49.02 -40 48 C-28.17669618 41.75350412 -21.45268287 32.75650313 -17.1875 20.125 C-15.5611215 14.19350195 -15.27819241 8.12023293 -15 2 C-13.62705778 1.65828994 -12.25149882 1.32708883 -10.875 1 C-9.72644531 0.7215625 -9.72644531 0.7215625 -8.5546875 0.4375 C-6 0 -6 0 0 0 Z " fill="#8F584D" transform="translate(229,380)"/>
<path d="M0 0 C3.59634744 3.49359465 6.83451967 7.11098131 10 11 C8.6981135 13.93533371 7.41648943 15.77144461 4.9453125 17.8125 C4.33647217 18.32409668 3.72763184 18.83569336 3.1003418 19.36279297 C2.448479 19.90307129 1.79661621 20.44334961 1.125 21 C-15.74986388 35.37975569 -32.43469425 51.97518637 -36 75 C-36.19514357 78.36949666 -36.25619898 81.73900735 -36.31640625 85.11328125 C-36.33718735 86.08283249 -36.35796844 87.05238373 -36.37937927 88.05131531 C-36.44458941 91.13830707 -36.5036268 94.22538152 -36.5625 97.3125 C-36.60571237 99.40951364 -36.64932752 101.50651903 -36.69335938 103.60351562 C-36.80024151 108.73559307 -36.90158896 113.86775341 -37 119 C-38.76949612 119.50471197 -40.54065223 120.00360685 -42.3125 120.5 C-43.29863281 120.7784375 -44.28476562 121.056875 -45.30078125 121.34375 C-48 122 -48 122 -51 122 C-51.09333035 114.64510266 -51.16408039 107.29033628 -51.20724869 99.93496323 C-51.22798401 96.51827593 -51.25603762 93.10199842 -51.30175781 89.68554688 C-51.35417147 85.74354223 -51.37306136 81.80169431 -51.390625 77.859375 C-51.41127014 76.65263123 -51.43191528 75.44588745 -51.45318604 74.20257568 C-51.45879069 52.67810005 -39.25539199 36.15988617 -24.6875 21.4375 C-18.7556517 15.53142634 -12.60438057 10.14785893 -6 5 C-4.76626676 3.98469035 -3.53622028 2.96485586 -2.3125 1.9375 C-1.549375 1.298125 -0.78625 0.65875 0 0 Z " fill="#3DC0A1" transform="translate(356,157)"/>
<path d="M0 0 C4.27145873 13.14939256 8.18876028 26.38998861 12.01538086 39.67407227 C12.30078232 40.66438194 12.30078232 40.66438194 12.59194946 41.67469788 C13.11406483 43.48794366 13.634833 45.30157721 14.15551758 47.11523438 C14.73305832 49.0881229 15.3499352 51.0498056 16 53 C16.90467268 61.91325055 15.5169531 69.26422808 10.12890625 76.51953125 C6.74709282 80.47670046 3.64652484 83.55808662 -1 86 C-1.66 86 -2.32 86 -3 86 C-5.93642916 78.35224179 -8.26647626 70.67811561 -10.3125 62.75 C-12.60907093 54.02941504 -15.03146162 45.36810396 -17.6875 36.75 C-18.12425049 35.33050049 -18.12425049 35.33050049 -18.56982422 33.88232422 C-19.12481648 32.08122327 -19.68029333 30.28027155 -20.23632812 28.47949219 C-21.32334814 24.95015228 -22.39187177 21.41688153 -23.4375 17.875 C-23.74558594 16.84117187 -24.05367187 15.80734375 -24.37109375 14.7421875 C-24.98674466 12.05779656 -25.12557632 9.74258694 -25 7 C-7.5 0 -7.5 0 0 0 Z " fill="#534C54" transform="translate(183,330)"/>
<path d="M0 0 C1.35762562 0.00560352 2.71525735 0.00987005 4.07289124 0.01286316 C7.62563169 0.0242526 11.17799727 0.05366766 14.73059082 0.0869751 C18.3639621 0.11780432 21.99739466 0.13139579 25.63085938 0.14648438 C32.74495862 0.17854411 39.85874333 0.23126273 46.97265625 0.29296875 C46.97265625 8.87296875 46.97265625 17.45296875 46.97265625 26.29296875 C19.58265625 26.29296875 -7.80734375 26.29296875 -36.02734375 26.29296875 C-33.73221975 15.96491076 -29.94821074 9.1880446 -21.02734375 3.29296875 C-14.25873333 -0.55969207 -7.63530252 -0.09106957 0 0 Z " fill="#544D55" transform="translate(182.02734375,469.70703125)"/>
<path d="M0 0 C1.7206794 0.01061211 1.7206794 0.01061211 3.47612 0.0214386 C7.13448713 0.04939312 10.79131538 0.11213839 14.44921875 0.17578125 C16.9316185 0.20086253 19.41404227 0.22367599 21.89648438 0.24414062 C27.9776301 0.29496933 34.05545521 0.39283065 40.13671875 0.48828125 C40.13671875 8.40828125 40.13671875 16.32828125 40.13671875 24.48828125 C0.53671875 24.48828125 -39.06328125 24.48828125 -79.86328125 24.48828125 C-76.66412123 22.35550791 -74.63377674 21.88124567 -70.89453125 21.15625 C-69.6923999 20.91777344 -68.49026855 20.67929687 -67.25170898 20.43359375 C-65.96852783 20.18351562 -64.68534668 19.9334375 -63.36328125 19.67578125 C-60.71739966 19.14457124 -58.07328723 18.60494283 -55.4296875 18.0625 C-54.77597672 17.92838715 -54.12226593 17.79427429 -53.44874573 17.65609741 C-32.13484107 14.20872505 -32.13484107 14.20872505 -14.9519043 2.91723633 C-10.23840954 -0.78955044 -5.82682363 -0.13526937 0 0 Z " fill="#F94354" transform="translate(385.86328125,338.51171875)"/>
<path d="M0 0 C18.48 0 36.96 0 56 0 C58.08543914 4.86602465 59.76602732 9.21765993 61.1875 14.25 C61.53167969 15.45140625 61.87585938 16.6528125 62.23046875 17.890625 C63 21 63 21 63 24 C42.21 24 21.42 24 0 24 C0 16.08 0 8.16 0 0 Z " fill="#F04151" transform="translate(86,339)"/>
<path d="M0 0 C5.79363532 1.52268621 9.70707995 2.64900491 13 8 C14.5547669 11.10953379 14.28644437 13.56266761 14 17 C11.1898871 21.95862155 7.61454029 25.53655116 3.4375 29.3125 C2.81762207 29.88009033 2.19774414 30.44768066 1.55908203 31.0324707 C-2.9242343 35.10595959 -7.52061978 39.01334862 -12.26171875 42.78515625 C-14.2885907 44.4245805 -16.25398498 46.08545493 -18.20703125 47.80859375 C-18.74569824 48.2775708 -19.28436523 48.74654785 -19.83935547 49.22973633 C-21.35662289 50.55439006 -22.86414894 51.89017735 -24.37109375 53.2265625 C-27 55 -27 55 -29.08203125 55.08984375 C-31.83970825 53.52285417 -33.33932121 51.45322707 -35.25 48.9375 C-35.95640625 48.01839844 -36.6628125 47.09929687 -37.390625 46.15234375 C-37.92171875 45.44207031 -38.4528125 44.73179687 -39 44 C-35.77974415 40.69317813 -32.48588514 37.68503997 -28.875 34.8125 C-23.91826766 30.80436064 -19.18859482 26.60729035 -14.51171875 22.27734375 C-12.41702724 20.37811335 -10.28241224 18.62158341 -8.0625 16.875 C-2.89056491 12.4844364 -0.66651731 6.66517315 0 0 Z " fill="#FBBA84" transform="translate(407,104)"/>
<path d="M0 0 C2.26783513 1.48440117 4.02170272 3.11590735 6 5 C8.23110851 3.96412819 10.00637397 2.99447589 11.875 1.375 C14.79560904 -0.51480585 16.58511593 -0.49800393 20 0 C23.02352411 2.06872702 23.85787938 3.27360569 24.5625 6.875 C23.791155 11.16025002 21.97932689 12.87170676 19 16 C20.03587181 18.23110851 21.00552411 20.00637397 22.625 21.875 C24.54126469 24.83649997 24.56575044 26.53477854 24 30 C21.8125 32.875 21.8125 32.875 19 35 C15.93551512 35.40793467 14.44589518 35.26146733 11.76171875 33.6875 C11.07722656 33.130625 10.39273437 32.57375 9.6875 32 C8.99011719 31.443125 8.29273438 30.88625 7.57421875 30.3125 C6.79498047 29.6628125 6.79498047 29.6628125 6 29 C5.56429688 29.44472656 5.12859375 29.88945312 4.6796875 30.34765625 C-0.16469076 34.95086416 -0.16469076 34.95086416 -4.1875 35.1875 C-7.74202309 33.68670136 -9.1259064 32.37336848 -11 29 C-11.19109718 24.60476493 -9.68077909 22.35698677 -6.9375 19.125 C-5.96961022 18.07284688 -4.99404216 17.02748089 -4 16 C-4.62261719 15.71640625 -5.24523437 15.4328125 -5.88671875 15.140625 C-8.80309222 13.56653803 -9.69386335 12.02473751 -11 9 C-10.93021482 5.51074078 -10.66290584 3.73656205 -8.3125 1.125 C-5.19629473 -0.39099175 -3.43569088 -0.54971054 0 0 Z " fill="#060202" transform="translate(382,219)"/>
<path d="M0 0 C1.68662458 1.64646685 3.35511706 3.31183067 5 5 C8.08298756 5.09634336 9.04252979 3.96091858 11.3125 1.875 C14 0 14 0 17.625 0.0625 C22.54285714 1.42857143 22.54285714 1.42857143 24 4 C24.7092283 8.60998397 24.15411364 11.22023289 21.5 14.9375 C20.675 15.948125 19.85 16.95875 19 18 C19.825 18.845625 20.65 19.69125 21.5 20.5625 C23.64920042 23.15996223 24.01992941 24.11559059 24.625 27.625 C24 31 24 31 21.8125 33.4375 C18.68773119 35.17348267 17.48283284 35.76452428 14 35 C11.79123997 33.48736576 9.97188576 31.83431233 8 30 C5.76889149 31.03587181 3.99362603 32.00552411 2.125 33.625 C-0.79560904 35.51480585 -2.58511593 35.49800393 -6 35 C-8.375 33.4375 -8.375 33.4375 -10 31 C-10.59754379 27.481131 -10.64707844 25.15085923 -8.87109375 21.9921875 C-7.6514336 20.27562877 -6.33162104 18.63123578 -5 17 C-5.825 16.154375 -6.65 15.30875 -7.5 14.4375 C-9.66786914 11.82493975 -10.01197577 10.92282283 -10.5625 7.375 C-10 4 -10 4 -8.375 1.5625 C-5.24316508 -0.49791771 -3.68455227 -0.6767545 0 0 Z " fill="#050202" transform="translate(116,219)"/>
<path d="M0 0 C0 9.57 0 19.14 0 29 C-17.21018296 38.13463557 -17.21018296 38.13463557 -25.0546875 42.0078125 C-26.54137939 42.74197388 -26.54137939 42.74197388 -28.05810547 43.4909668 C-29.99458992 44.44313861 -31.93366465 45.39006338 -33.87548828 46.33129883 C-34.76220215 46.76724365 -35.64891602 47.20318848 -36.5625 47.65234375 C-37.34753906 48.03382568 -38.13257813 48.41530762 -38.94140625 48.80834961 C-41.03513937 50.02034099 -42.47513497 51.12519035 -44 53 C-44.51200735 56.43776366 -44.57043703 58.21564908 -42.5 61.0625 C-39.15993861 63.65104758 -35.63320614 65.84829539 -32 68 C-33.72154788 71.76488042 -35.99234114 74.15063897 -39 77 C-39.69609375 76.28199219 -40.3921875 75.56398438 -41.109375 74.82421875 C-44.48742114 71.44498148 -48.17866316 68.48683061 -51.890625 65.48632812 C-55.36402252 62.64248391 -56.7815611 61.36524311 -57.5 56.875 C-56.7817248 51.30836719 -54.14156941 48.66570403 -50 45 C-45.76137541 42.29287778 -41.32876056 40.07986665 -36.8125 37.875 C-35.0790332 37.00294922 -35.0790332 37.00294922 -33.31054688 36.11328125 C-29.88172943 34.39213426 -26.4417958 32.69501418 -23 31 C-20.71142695 29.85839848 -18.42361411 28.71527112 -16.13671875 27.5703125 C-14.44160156 26.72210938 -12.74648437 25.87390625 -11 25 C-11 18.07 -11 11.14 -11 4 C-2 0 -2 0 0 0 Z " fill="#F9B983" transform="translate(184,69)"/>
<path d="M0 0 C5.68907539 3.13170055 8.1229559 6.4901315 11.05078125 12.12890625 C1.70773256 15.47451939 -7.74165051 18.2412685 -17.32421875 20.81640625 C-18.42878418 21.11361572 -19.53334961 21.4108252 -20.67138672 21.71704102 C-26.7385537 23.33010433 -32.80984308 24.81701861 -38.94921875 26.12890625 C-39.36692659 17.71286682 -39.21751174 11.01552494 -33.63671875 4.37890625 C-23.59847228 -4.02520707 -12.07757037 -5.6730977 0 0 Z " fill="#90594E" transform="translate(214.94921875,289.87109375)"/>
<path d="M0 0 C3.44086718 1.5292743 6.09239931 3.62762929 9 6 C7.03100943 24.22050974 -0.04389027 36.86560792 -14.125 48.5 C-19.03059409 52.25904455 -24.25964683 54.76251927 -30 57 C-30.84820312 57.36996094 -31.69640625 57.73992187 -32.5703125 58.12109375 C-37.75977886 59.45096839 -42.85359438 59.28816748 -48.1875 59.25 C-49.27998047 59.25773437 -50.37246094 59.26546875 -51.49804688 59.2734375 C-52.54412109 59.27085937 -53.59019531 59.26828125 -54.66796875 59.265625 C-55.61953857 59.26336914 -56.5711084 59.26111328 -57.55151367 59.25878906 C-60 59 -60 59 -63 57 C-62.37996094 56.98582031 -61.75992188 56.97164062 -61.12109375 56.95703125 C-45.65392865 56.12401071 -28.70677238 49.51160949 -18 38 C-8.75471204 27.06644207 -1.84222878 14.36938445 0 0 Z " fill="#FABA84" transform="translate(304,95)"/>
<path d="M0 0 C3.80720963 1.102087 7.14745829 2.5753325 10.625 4.4375 C20.03430286 9.14215143 28.74157877 10.10276007 39.125 10.3125 C47.38636677 10.48648918 53.61043594 11.22821147 60 17 C57.20208676 18.86527549 55.24252328 19.64913993 52.0625 20.5625 C51.20785156 20.81128906 50.35320312 21.06007812 49.47265625 21.31640625 C48.65667969 21.54199219 47.84070313 21.76757812 47 22 C46.38769531 22.18820313 45.77539062 22.37640625 45.14453125 22.5703125 C26.08162713 26.38983792 10.07323098 18.02411107 -6 9 C-4.14099778 5.86000465 -2.24154592 2.88198761 0 0 Z " fill="#3EC1A2" transform="translate(165,145)"/>
<path d="M0 0 C17.16 0 34.32 0 52 0 C52 7.92 52 15.84 52 24 C12.4 24 -27.2 24 -68 24 C-64.16170454 21.44113636 -61.11475227 21.78346409 -56.67651367 21.8840332 C-55.82739914 21.8949852 -54.97828461 21.90593719 -54.10343933 21.91722107 C-52.2585548 21.94158127 -50.41372253 21.97018171 -48.56896019 22.00249672 C-45.64764246 22.05111956 -42.72660475 22.08309147 -39.80500793 22.10966492 C-31.49805146 22.18604765 -23.19160353 22.27523485 -14.88549805 22.41821289 C-9.80515541 22.50445932 -4.72543811 22.55642332 0.35553551 22.58626366 C2.29054539 22.60420442 4.22548082 22.63500885 6.16007423 22.67897987 C8.87026789 22.73932811 11.57754666 22.75598967 14.28833008 22.76293945 C15.08491028 22.79124847 15.88149048 22.8195575 16.70220947 22.84872437 C19.77686262 22.82091573 22.05362978 22.65077716 24.6253109 20.8823452 C29.9013917 15.34503482 32.68556547 7.62886907 36 1 C24.12 1 12.24 1 0 1 C0 0.67 0 0.34 0 0 Z " fill="#DB2D43" transform="translate(374,339)"/>
<path d="M0 0 C3.5 0.5625 3.5 0.5625 5.69140625 1.94140625 C8.54172613 6.07221541 8.04044463 10.16764903 7.9375 15.0625 C7.94458984 16.01253906 7.95167969 16.96257812 7.95898438 17.94140625 C7.88392136 26.15214551 7.88392136 26.15214551 4.5 29.5625 C-0.97087379 30.3440534 -0.97087379 30.3440534 -3.5 29.5625 C-5.95182912 27.42091991 -7.29595453 25.70007654 -7.87866211 22.45141602 C-8.03888594 19.97576553 -8.04557776 17.54268964 -8 15.0625 C-8.01546875 14.22074219 -8.0309375 13.37898438 -8.046875 12.51171875 C-8.02104078 8.41053671 -7.81504404 6.09413681 -5.6875 2.50390625 C-3.5 0.5625 -3.5 0.5625 0 0 Z " fill="#040302" transform="translate(468.5,323.4375)"/>
<path d="M0 0 C2.78812256 2.03778958 4.70074605 3.64165411 5.46508789 7.11108398 C5.63749795 9.59240132 5.63293142 12.01396118 5.5625 14.5 C5.57345703 15.34175781 5.58441406 16.18351562 5.59570312 17.05078125 C5.54762188 21.12165989 5.30052755 23.48396256 3.21875 27.05859375 C0.86412659 29.11888923 0.00914769 29.66311274 -3.0625 29.5625 C-7 29 -7 29 -8.71899414 27.26757812 C-10.99188172 23.24421624 -10.47122268 19.01883883 -10.4375 14.5 C-10.45748047 13.54996094 -10.47746094 12.59992188 -10.49804688 11.62109375 C-10.4931805 4.70111042 -10.4931805 4.70111042 -8.15625 1.37890625 C-5.14723602 -0.54533638 -3.50709128 -0.64415962 0 0 Z " fill="#040202" transform="translate(46,324)"/>
<path d="M0 0 C0.66 0 1.32 0 2 0 C4.41066982 7.23200945 3.4838491 14.69840432 0.40234375 21.57421875 C-3.13236795 27.68858076 -7.72567438 32.70261965 -14 36 C-14.66 36 -15.32 36 -16 36 C-16.67679658 34.274773 -17.34102 32.54461061 -18 30.8125 C-18.37125 29.84957031 -18.7425 28.88664062 -19.125 27.89453125 C-20.01518627 24.94976328 -20.57455653 23.0290217 -20 20 C-17.8046875 18.2265625 -17.8046875 18.2265625 -14.875 16.625 C-7.60544327 12.3174606 -3.41420496 7.7768002 0 0 Z " fill="#413D41" transform="translate(196,380)"/>
<path d="M0 0 C4.95 0 9.9 0 15 0 C15 8.58 15 17.16 15 26 C10.05 26 5.1 26 0 26 C0 17.42 0 8.84 0 0 Z " fill="#413D41" transform="translate(214,470)"/>
<path d="M0 0 C6.13699156 3.85753755 8.72431931 9.77184183 10.7578125 16.51171875 C12.95161719 27.09450899 12.17763685 38.24887152 12 49 C7.5 46 7.5 46 3 43 C2.59936523 40.11767578 2.59936523 40.11767578 2.55859375 36.4453125 C2.54538589 35.78852509 2.53217804 35.13173767 2.51856995 34.45504761 C2.47763023 32.3449913 2.45605 30.2353631 2.4375 28.125 C2.32692031 18.58610595 1.92573686 9.3892202 0 0 Z " fill="#423E42" transform="translate(301,33)"/>
</svg>
